<mxfile host="app.diagrams.net" modified="2020-11-09T08:38:32.341Z" agent="5.0 (Windows)" etag="m_ceEQ5_VHwqj7ARENp6" version="13.9.2" type="github">
  <diagram id="7ZiH7zOeiX9_COY_xwUg" name="Page-1">
    <mxGraphModel dx="1358" dy="803" grid="1" gridSize="10" guides="1" tooltips="1" connect="1" arrows="1" fold="1" page="1" pageScale="1" pageWidth="827" pageHeight="1169" math="0" shadow="0">
      <root>
        <mxCell id="0" />
        <mxCell id="1" parent="0" />
        <mxCell id="X3AbKdp-ricjODkaEyMr-1" value="" style="pointerEvents=1;shadow=0;dashed=0;html=1;strokeColor=none;fillColor=#505050;labelPosition=center;verticalLabelPosition=bottom;verticalAlign=top;outlineConnect=0;align=center;shape=mxgraph.office.concepts.folder_open;" vertex="1" parent="1">
          <mxGeometry x="80" y="100" width="56" height="43" as="geometry" />
        </mxCell>
        <mxCell id="X3AbKdp-ricjODkaEyMr-8" style="edgeStyle=orthogonalEdgeStyle;rounded=0;orthogonalLoop=1;jettySize=auto;html=1;endArrow=none;endFill=0;" edge="1" parent="1" source="X3AbKdp-ricjODkaEyMr-3" target="X3AbKdp-ricjODkaEyMr-5">
          <mxGeometry relative="1" as="geometry" />
        </mxCell>
        <mxCell id="X3AbKdp-ricjODkaEyMr-3" value="&lt;font style=&quot;font-size: 16px&quot;&gt;[&lt;br&gt;&amp;nbsp;&amp;nbsp; &amp;nbsp;{ &quot;UKN&quot; : { &quot;all&quot; : &quot;UKN&quot; } },&lt;br&gt;&amp;nbsp;&amp;nbsp; &amp;nbsp;{ &quot;U/S&quot; : { &quot;all&quot; : &quot;U/S&quot; } },&lt;br&gt;&amp;nbsp;&amp;nbsp; &amp;nbsp;{ &quot;OPS&quot; : { &quot;and&quot; : [ { &quot;all&quot; : &quot;OPS&quot; }, {&quot;one&quot;, &quot;SBY&quot;} ] } },&lt;br&gt;&amp;nbsp;&amp;nbsp; &amp;nbsp;{ &quot;DEG&quot; : &quot;else&quot; }&lt;br&gt;]&lt;/font&gt;" style="strokeWidth=2;html=1;shape=mxgraph.flowchart.document2;whiteSpace=wrap;size=0.25;align=left;" vertex="1" parent="1">
          <mxGeometry x="250" y="330" width="450" height="180" as="geometry" />
        </mxCell>
        <mxCell id="X3AbKdp-ricjODkaEyMr-7" style="edgeStyle=orthogonalEdgeStyle;rounded=0;orthogonalLoop=1;jettySize=auto;html=1;endArrow=none;endFill=0;" edge="1" parent="1" source="X3AbKdp-ricjODkaEyMr-5" target="X3AbKdp-ricjODkaEyMr-1">
          <mxGeometry relative="1" as="geometry" />
        </mxCell>
        <mxCell id="X3AbKdp-ricjODkaEyMr-5" value="" style="pointerEvents=1;shadow=0;dashed=0;html=1;strokeColor=none;fillColor=#505050;labelPosition=center;verticalLabelPosition=bottom;verticalAlign=top;outlineConnect=0;align=center;shape=mxgraph.office.concepts.folder_open;" vertex="1" parent="1">
          <mxGeometry x="170" y="200" width="56" height="43" as="geometry" />
        </mxCell>
        <mxCell id="X3AbKdp-ricjODkaEyMr-9" value="&lt;div align=&quot;left&quot;&gt;&lt;font style=&quot;font-size: 17px&quot;&gt;Config&lt;/font&gt;&lt;/div&gt;" style="text;html=1;strokeColor=none;fillColor=none;align=left;verticalAlign=middle;whiteSpace=wrap;rounded=0;fontStyle=1" vertex="1" parent="1">
          <mxGeometry x="160" y="111.5" width="40" height="20" as="geometry" />
        </mxCell>
        <mxCell id="X3AbKdp-ricjODkaEyMr-11" value="&lt;div align=&quot;left&quot;&gt;&lt;font style=&quot;font-size: 17px&quot;&gt;Framework&lt;/font&gt;&lt;/div&gt;" style="text;html=1;strokeColor=none;fillColor=none;align=left;verticalAlign=middle;whiteSpace=wrap;rounded=0;fontStyle=1" vertex="1" parent="1">
          <mxGeometry x="260" y="211.5" width="40" height="20" as="geometry" />
        </mxCell>
        <mxCell id="X3AbKdp-ricjODkaEyMr-12" value="&lt;div style=&quot;font-size: 17px&quot;&gt;&lt;font style=&quot;font-size: 17px&quot;&gt;TruthTable01.json&lt;/font&gt;&lt;/div&gt;" style="text;html=1;strokeColor=none;fillColor=none;align=center;verticalAlign=middle;whiteSpace=wrap;rounded=0;fontStyle=1" vertex="1" parent="1">
          <mxGeometry x="440" y="290" width="40" height="20" as="geometry" />
        </mxCell>
      </root>
    </mxGraphModel>
  </diagram>
</mxfile>
